<?xml version="1.0" standalone="no"?><!DOCTYPE svg PUBLIC "-//W3C//DTD SVG 1.1//EN" "http://www.w3.org/Graphics/SVG/1.1/DTD/svg11.dtd"><svg t="1649898935793" class="icon" viewBox="0 0 1024 1024" version="1.1" xmlns="http://www.w3.org/2000/svg" p-id="5001" xmlns:xlink="http://www.w3.org/1999/xlink" width="128" height="128"><defs><style type="text/css">@font-face { font-family: "feedback-iconfont"; src: url("//at.alicdn.com/t/font_1031158_u69w8yhxdu.woff2?t=1630033759944") format("woff2"), url("//at.alicdn.com/t/font_1031158_u69w8yhxdu.woff?t=1630033759944") format("woff"), url("//at.alicdn.com/t/font_1031158_u69w8yhxdu.ttf?t=1630033759944") format("truetype"); }
</style></defs><path d="M512 883.2A371.2 371.2 0 1 0 140.8 512 371.2 371.2 0 0 0 512 883.2z m0 64a435.2 435.2 0 1 1 435.2-435.2 435.2 435.2 0 0 1-435.2 435.2z" p-id="5002"></path><path d="M557.056 512l122.368 122.368a31.744 31.744 0 1 1-45.056 45.056L512 557.056l-122.368 122.368a31.744 31.744 0 1 1-45.056-45.056L466.944 512 344.576 389.632a31.744 31.744 0 1 1 45.056-45.056L512 466.944l122.368-122.368a31.744 31.744 0 1 1 45.056 45.056z" p-id="5003"></path></svg>