<?xml version="1.0" standalone="no"?><!DOCTYPE svg PUBLIC "-//W3C//DTD SVG 1.1//EN" "http://www.w3.org/Graphics/SVG/1.1/DTD/svg11.dtd"><svg t="1649937184422" class="icon" viewBox="0 0 1024 1024" version="1.1" xmlns="http://www.w3.org/2000/svg" p-id="1317" xmlns:xlink="http://www.w3.org/1999/xlink" width="128" height="128"><defs><style type="text/css">@font-face { font-family: "feedback-iconfont"; src: url("//at.alicdn.com/t/font_1031158_u69w8yhxdu.woff2?t=1630033759944") format("woff2"), url("//at.alicdn.com/t/font_1031158_u69w8yhxdu.woff?t=1630033759944") format("woff"), url("//at.alicdn.com/t/font_1031158_u69w8yhxdu.ttf?t=1630033759944") format("truetype"); }
</style></defs><path d="M853.696 216.192L424.128 679.68 233.984 471.104a56.384 56.384 0 0 0-83.2-1.216 65.792 65.792 0 0 0-1.216 88.832l232.064 254.592a1.28 1.28 0 0 0 0.448 0.384 1.728 1.728 0 0 0 0 0.512 57.216 57.216 0 0 0 12.8 9.28 64.896 64.896 0 0 0 6.4 4.224 55.104 55.104 0 0 0 22.272 4.608 56.192 56.192 0 0 0 22.016-4.48 66.304 66.304 0 0 0 6.4-4.224 52.48 52.48 0 0 0 12.8-9.024 2.176 2.176 0 0 1 0.384-0.384 1.344 1.344 0 0 1 0.448-0.512L937.6 304.64a65.984 65.984 0 0 0-0.512-88.896 56.32 56.32 0 0 0-83.392 0.448z" p-id="1318"></path></svg>