<?xml version="1.0" standalone="no"?><!DOCTYPE svg PUBLIC "-//W3C//DTD SVG 1.1//EN" "http://www.w3.org/Graphics/SVG/1.1/DTD/svg11.dtd"><svg t="1651827926949" class="icon" viewBox="0 0 1024 1024" version="1.1" xmlns="http://www.w3.org/2000/svg" p-id="4015" xmlns:xlink="http://www.w3.org/1999/xlink" width="64" height="64"><defs><style type="text/css">@font-face { font-family: "feedback-iconfont"; src: url("//at.alicdn.com/t/font_1031158_u69w8yhxdu.woff2?t=1630033759944") format("woff2"), url("//at.alicdn.com/t/font_1031158_u69w8yhxdu.woff?t=1630033759944") format("woff"), url("//at.alicdn.com/t/font_1031158_u69w8yhxdu.ttf?t=1630033759944") format("truetype"); }
</style></defs><path d="M186.182 605.09h651.636V418.91H186.182v186.18z m0 46.546v162.91a23.273 23.273 0 0 0 23.273 23.272h605.09a23.273 23.273 0 0 0 23.273-23.273V651.636H186.182z m0-279.272h651.636v-162.91a23.273 23.273 0 0 0-23.273-23.272h-605.09a23.273 23.273 0 0 0-23.273 23.273v162.909z m651.636-232.728a46.545 46.545 0 0 1 46.546 46.546v651.636a46.545 46.545 0 0 1-46.546 46.546H186.182a46.545 46.545 0 0 1-46.546-46.546V186.182a46.545 46.545 0 0 1 46.546-46.546h651.636z m-558.545 162.91a23.273 23.273 0 1 1 0-46.546 23.273 23.273 0 0 1 0 46.545z m69.818 0a23.273 23.273 0 1 1 0-46.546 23.273 23.273 0 0 1 0 46.545z m69.818 0a23.273 23.273 0 1 1 0-46.546 23.273 23.273 0 0 1 0 46.545zM558.545 256h186.182a23.273 23.273 0 0 1 0 46.545H558.545a23.273 23.273 0 0 1 0-46.545zM279.273 535.273a23.273 23.273 0 1 1 0-46.546 23.273 23.273 0 0 1 0 46.546z m69.818 0a23.273 23.273 0 1 1 0-46.546 23.273 23.273 0 0 1 0 46.546z m69.818 0a23.273 23.273 0 1 1 0-46.546 23.273 23.273 0 0 1 0 46.546z m139.636-46.546h186.182a23.273 23.273 0 0 1 0 46.546H558.545a23.273 23.273 0 0 1 0-46.546zM279.273 768a23.273 23.273 0 1 1 0-46.545 23.273 23.273 0 0 1 0 46.545z m69.818 0a23.273 23.273 0 1 1 0-46.545 23.273 23.273 0 0 1 0 46.545z m69.818 0a23.273 23.273 0 1 1 0-46.545 23.273 23.273 0 0 1 0 46.545z m139.636-46.545h186.182a23.273 23.273 0 0 1 0 46.545H558.545a23.273 23.273 0 0 1 0-46.545z" fill="#2c2c2c" p-id="4016"></path></svg>